<svg xmlns="http://www.w3.org/2000/svg" viewBox="0 0 396 108.41">
  <g id="car">
    <circle id="wheel-back" cx="272.5" cy="33" r="6.5"/>
    <circle id="wheel-front" cx="297.5" cy="33" r="6.5" fill="black"/>
    <path fill="none" stroke="#000" stroke-linecap="round" stroke-linejoin="round" stroke-width="2px" d="M264.88 29.93a7.46 7.46 0 016.63-5.57 8 8 0 017.36 3.18 11.06 11.06 0 011.72 3.45h9.33c1-3.43 3.44-5.91 6.62-6.35a8 8 0 017.36 3.18 7.58 7.58 0 011.24 3.17h0a5.71 5.71 0 003.61-2.69c1.18-2 .79-4.46.49-6.36a14.62 14.62 0 00-.49-2.12c-1.09-3-7.79-4.45-16.2-3.71l-8.47-12.67h0c-5.47-3.14-17.94-3.34-21.24 0-3 3-3.56 7.34-4.26 12.72-.25 1.95-1.65 12.64 2.36 14.84.93.51 3 1.06 4-1.06"/>
    <rect width="13.75" height="11.66" x="262.46" y="5.28" class="cls-4" rx="5"/>
    <path d="M280.61 18.88a3.76 3.76 0 013.93-.53 2.78 2.78 0 011 1.06c2.79 4.86 7 9 5.89 10.6-.18.27-.77.36-2 .53a20.14 20.14 0 01-5.4 0 10.5 10.5 0 01-2.93-.54c-2.78-1.77-3.3-8.91-.49-11.12z"  transform="translate(-1.25 -12.7)"/>
  </g>
    <path fill="none" stroke="black" d="M370 101.88l-91.3.67a.67.67 0 01-.7-.55l-.21-17.35c-.07-5.3 5.46-9.68 12.28-9.73l77.91-.58a2.27 2.27 0 012.5 1.91l.31 25.07a.68.68 0 01-.79.56z"  transform="translate(-1.25 -12.7)"/>
      <ellipse id="tire-1" cx="300.24" cy="87.57" rx="5.71" ry="4.43"/>
      <ellipse id="tire-2" cx="358.47" cy="87.05" rx="5.71" ry="4.43"/>
    <path fill="#e6e6e6" stroke="#000" stroke-miterlimit="10" stroke-width="0.5px" d="M291.85 89.56l-13.65.1-.27-21.88 13.65-.11.27 21.89z"/>
    <path fill="#e6e6e6" stroke="#000" stroke-miterlimit="10" stroke-width=".5px" d="M366.04 69.94l-74.18.55-.1-8.14 74.18-.55.1 8.14z"/>
    <path d="M304.51 70.47l-.1-8.29M357.26 61.79l.1 8.29M345.84 61.87l.11 8.29M333.44 61.97l.1 8.29M319.3 62.07l.1 8.29" />
    <path d="M360.24 74.19l-59 .43v-.19c0-1.27 1.32-2.32 2.95-2.33l53.59-.4a2.28 2.28 0 012.51 1.91z"  transform="translate(-1.25 -12.7)"/>
    <text fill="#ed1c24" font-size="8px" transform="matrix(2.2 -.02 .01 1 304 82)">Lovely</text>
  </g>
  <text transform="translate(0 49.77)"> Bangalore
  </text>
  <text transform="translate(182.53 101.1)"> Indore
  </text>
  <text transform="translate(324.53 50.1)"> Parasia
  </text>
  <text transform="translate(180.53 51.1)"> Nagpur
  </text>
  <g id="bglr-ngp-arrow" fill="none" stroke="black">
    <path d="M166.97 43.5H91" />
    <path d="M174.26 56.2a30.1 30.1 0 01-8.55-4.76l1.72 4.76-1.72 4.8a30.31 30.31 0 018.55-4.8z" transform="translate(-1.25 -12.7)"/>
  </g>
  <g id="ngp-pars-arrow" fill="none" stroke="black">
    <path d="M311.71 45.1l-66.71.4" />
    <path d="M319 57.76a30.35 30.35 0 01-8.58-4.7l1.75 4.74-1.69 4.77a30.17 30.17 0 018.52-4.81z" transform="translate(-1.25 -12.7)"/>
  </g>
  <g id="ind-bglr-arrpw" fill="none" stroke="black">
    <path d="M95.98 51.55l81.26 46.91" />
    <path d="M92 61.23a30.45 30.45 0 015 8.4l.89-5 3.87-3.26a30.06 30.06 0 01-9.76-.14z" transform="translate(-1.25 -12.7)"/>
  </g>
  <g id="par-ind-arrow" fill="none" stroke="black"> 
    <path d="M242.78 112.27c36.92.57 60.54 1 76.37 1.29 26.47.5 55 .14 68.91-9 10.14-6.65 10.34-20.64 6-34.48-1.88-6-6.68-10-10.49-12.41"  transform="translate(-1.25 -12.7)"/>
    <path d="M236.75 112.18a30.18 30.18 0 018.46 4.9l-1.64-4.79 1.8-4.72a30.49 30.49 0 01-8.62 4.61z" transform="translate(-1.25 -12.7)"/>
  </g>
  <path d="M131.67 90.85l-1.88-1.37L107.51 93a6.74 6.74 0 01-2.37-.18c-2.78-1.56-5.5-3-7.89-4.23-4.53-2.27-8-3.37-8.39-2.7-.39.68 2.32 3.12 6.56 5.88 2.25 1.46 4.88 3.07 7.64 4.69a6.7 6.7 0 011.35 2l8.24 21 2.13.93-2.25-18.47c5.92 3.3 10.82 5.91 11.6 6.35.52.3 2.64 1.21 4.85 2.08l1.59 6 1.18.67 1.78-5c.67.21 1.1.3 1.15.22s-.25-.41-.77-.89l3.46-4.08-1.17-.68-6 1.67c-1.87-1.46-3.72-2.84-4.24-3.14-.78-.44-5.51-3.36-11.34-6.8zM105.38 51.66l2.31-.2 14.24-18.12a6.71 6.71 0 011.89-1.5c3.12-.68 6.12-1.38 8.71-2.07 4.89-1.31 8.22-2.83 8.06-3.63-.17-.8-3.83-.88-8.84-.16-2.65.38-5.69.92-8.82 1.53a6.7 6.7 0 01-2.33-.63l-20.23-11-2.2.73 14.08 13.16c-6.61 1.45-12 2.74-12.89 2.92-.59.12-2.78.87-5 1.69l-5.25-3.71-1.32.28 2.06 5.24c-.63.3-1 .52-1 .62s.47.16 1.16.18l.17 5.64 1.33-.28 3.36-5.47c2.37-.12 4.67-.3 5.26-.42.88-.18 6.36-1.12 13-2.4z"  transform="translate(-1.25 -12.7)"/>
</svg>
